<?xml version="1.0" standalone="no"?>
<!DOCTYPE svg PUBLIC "-//W3C//DTD SVG 20010904//EN"
 "http://www.w3.org/TR/2001/REC-SVG-20010904/DTD/svg10.dtd">
<svg version="1.0" xmlns="http://www.w3.org/2000/svg"
 width="700.000000pt" height="700.000000pt" viewBox="0 0 700.000000 700.000000"
 preserveAspectRatio="xMidYMid meet">
<metadata>
Created by potrace 1.14, written by Peter Selinger 2001-2017
</metadata>
<g transform="translate(0.000000,700.000000) scale(0.100000,-0.100000)"
fill="#000000" stroke="none">
<path d="M3340 6473 c-25 -8 -61 -27 -80 -41 -19 -14 -378 -368 -796 -787
-532 -531 -768 -774 -784 -805 -34 -66 -38 -159 -10 -233 20 -53 47 -83 300
-337 153 -153 297 -290 318 -304 44 -28 128 -46 181 -40 103 13 98 9 917 828
848 848 824 820 825 939 2 121 -11 139 -325 455 -223 224 -292 288 -336 310
-65 32 -143 38 -210 15z m333 -522 l248 -248 -742 -742 c-408 -408 -745 -739
-748 -736 -3 3 -114 113 -247 246 l-240 240 740 743 c408 409 741 744 741 745
0 0 112 -111 248 -248z"/>
<path d="M4447 5323 c-50 -24 -228 -198 -1399 -1368 -1482 -1482 -1398 -1390
-1398 -1520 0 -112 19 -138 328 -448 323 -324 350 -343 470 -335 50 4 83 13
119 33 38 20 400 376 1376 1353 729 730 1333 1335 1342 1344 9 10 27 43 42 74
22 48 25 66 21 123 -3 37 -13 85 -23 106 -25 54 -585 615 -640 641 -23 10 -69
20 -110 22 -60 3 -78 -1 -128 -25z m603 -758 c0 -5 -588 -598 -1307 -1317
l-1307 -1307 -248 247 -247 247 1312 1312 1311 1312 243 -242 c134 -133 243
-246 243 -252z"/>
<path d="M1206 4344 c-62 -22 -95 -52 -376 -333 -197 -197 -272 -279 -290
-316 -32 -67 -35 -150 -8 -224 19 -50 48 -83 297 -334 152 -153 296 -291 321
-307 88 -56 229 -53 309 6 20 15 157 148 304 295 286 286 316 325 321 422 3
53 -16 128 -43 170 -11 17 -145 157 -297 309 -199 199 -290 283 -323 299 -57
27 -160 33 -215 13z m342 -527 l243 -243 -247 -248 -247 -247 -245 246 c-135
135 -243 247 -241 250 26 33 477 483 484 484 6 0 120 -108 253 -242z"/>
<path d="M5659 4209 c-25 -4 -65 -17 -90 -29 -52 -27 -2700 -2669 -2742 -2737
-47 -74 -51 -183 -11 -270 11 -24 126 -148 303 -325 314 -315 333 -329 446
-334 42 -1 77 4 115 19 51 20 151 117 1406 1372 1089 1088 1355 1360 1374
1400 18 38 24 67 25 120 0 120 -14 140 -337 461 -170 169 -298 288 -320 298
-52 23 -116 33 -169 25z m531 -780 c0 -8 -2611 -2619 -2619 -2619 -3 0 -115
110 -249 244 l-242 243 1311 1312 1312 1312 243 -243 c134 -134 244 -246 244
-249z"/>
</g>
</svg>
